<!-- icon666.com - MILLIONS vector ICONS FREE --><svg xmlns="http://www.w3.org/2000/svg" xmlns:xlink="http://www.w3.org/1999/xlink" version="1.1" id="Capa_1" x="0px" y="0px" viewBox="0 0 512.001 512.001" style="enable-background:new 0 0 512.001 512.001;" xml:space="preserve"><g><linearGradient id="SVGID_1_" gradientUnits="userSpaceOnUse" x1="213.3116" y1="8.3477" x2="213.3116" y2="504.5496"><stop offset="0.3" style="stop-color:#FF1B2D"></stop><stop offset="0.4381" style="stop-color:#FA1A2C"></stop><stop offset="0.5939" style="stop-color:#ED1528"></stop><stop offset="0.7581" style="stop-color:#D60E21"></stop><stop offset="0.9272" style="stop-color:#B70519"></stop><stop offset="1" style="stop-color:#A70014"></stop></linearGradient><path style="fill:url(#SVGID_1_);" d="M171.737,400.271c-28.302-33.411-46.637-82.808-47.882-138.238 c-0.004-0.143-0.004-11.918,0-12.061c1.245-55.429,19.579-104.825,47.88-138.235c36.728-47.692,91.843-66.439,152.807-66.439 c37.504,0,102.081,19.869,102.081,19.869C381.558,24.848,322.138,0.253,256.968,0.012C256.645,0.011,256.324,0,256.001,0 c-141.385,0-256,114.615-256,256.001c0,137.295,108.085,249.338,243.808,255.704c4.042,0.19,8.104,0.297,12.192,0.297 c65.542,0,125.317-24.642,170.604-65.151c0,0-62.116,14.14-99.614,14.14C266.026,460.99,208.463,447.961,171.737,400.271z"></path><g><linearGradient id="SVGID_00000067216744952683909510000000913572146786459031_" gradientUnits="userSpaceOnUse" x1="341.8677" y1="37.5941" x2="341.8677" y2="476.4603"><stop offset="0" style="stop-color:#9C0000"></stop><stop offset="0.7" style="stop-color:#FF4B4B"></stop></linearGradient><path style="fill:url(#SVGID_00000067216744952683909510000000913572146786459031_);" d="M171.735,111.737 c23.489-27.729,53.836-44.453,86.982-44.453c74.523,0,134.936,84.493,134.936,188.719s-60.413,188.718-134.936,188.718 c-33.145,0-63.492-16.724-86.98-44.451c36.726,47.69,91.319,77.93,152.283,77.93c37.498,0,72.581-11.448,102.585-31.351 c52.404-46.876,85.396-115.005,85.396-190.849c0-75.836-32.984-143.958-85.378-190.834 c-30.008-19.91-65.099-31.362-102.603-31.362C263.056,33.805,208.462,64.046,171.735,111.737z"></path></g></g></svg>